# xmcd
# Copyright (C) 1995-1998 Ti Kan
#
# Track frame offsets:
#       150
#       19575
#       41023
#       77453
#
# Disc length: 1116 seconds
#
# Revision: 0
# Processed by: cddbd v1.5.1PL2 Copyright (c) Steve Scherf et al.
# Submitted via: CD-Transfer v1.0
#
DISCID=20045a04
DTITLE=Shakira - Don`t Bother
DYEAR=05
DGENRE=
TTITLE0=Don`t Bother
TTITLE1=No
TTITLE2=Don`t Bother (Jrsnchz Main Mix)
TTITLE3=No (Video)
EXTD=
EXTT0=
EXTT1=
EXTT2=
EXTT3=
PLAYORDER=
